<?xml version="1.0" encoding="UTF-8"?>
<svg id="Layer_3" data-name="Layer 3" xmlns="http://www.w3.org/2000/svg" viewBox="0 0 1440 1440">
  <path d="M1423.13,851.93c2.12-7.65,4.32-16.16,5.91-23.91.5-3.02.39-6.13-.96-8.9-2.98-5.94-10.62-11.14-14.68-17.36-3.72-5.02-5.93-9.96-10.27-14.42-6.05-6.42-14.67-9.24-21.98-14.49-11.95-8.48-25.1-18.95-36.63-28.08-9.15-7.32-22.63-19-18.12-31.88,2.36-5.63,8.79-9.33,11.98-14.53,3.53-4.67,1.73-12.17.6-18.21-1.78-9.14-3.53-17.98-4.56-27.14-.8-8.2-2.93-16.27,1.22-22.8,2.95-4.33,7.56-7.77,11.44-11.37,6.49-5.7,12.11-11.61,16.94-18.33,4.05-5.66,4.46-11.86,2.09-18.96-1.75-5.51-3.2-10.56-6.28-14.79-2.72-3.76-6.57-7.07-10.21-10.12-10.95-9.16-21.78-17.73-35.11-22.6-11.09-3.5-20.59-5.3-32.44-5.54-8.71-.2-17.42-.45-25.53-3.46-25.38-8.12-16.78-12.12-25.99-31.43-4.59-7.86-12.28-13.73-17.36-21.15-6.68-8.45-10.4-18.42-14.15-28.24-4.34-11-9.02-21.51-12.57-32.5-2.67-8.96-5.97-18.03-14-23.49-6.44-4.69-12.52-10.83-19.69-14.22-6.44-3.08-13.17-1.59-18.17-6.3-5.22-5.03-5.91-13.08-10.95-18.34-5.72-6.41-14.05-10.68-18.83-17.88-7.72-10.31-13.68-21.92-23.23-30.42-6.26-5.33-13.79-11.65-20.64-16.08-8.08-4.62-16.42,2.68-23.99,5.47-7.18,3.39-12.83,5.01-20.18,5.82-16.04,1.96-34.23,3.57-46.7-8.19-2.49-2.42-4.64-5.09-7.19-7.46-12.6-11.2-30.2-13.21-45.56-18.13-10.13-3.41-19.32-7.85-29.56-10.48-9.44-2.94-21-3.58-31.36-4.49-12.26-.78-20.85-11.77-31.78-15.97-10.44-3.96-23.6-3.08-32.05-11.11-4.04-3.5-7.61-7.91-12.23-10.66-7.73-4.36-17.83-4.73-26.07-1.59-7.82,3.34-13.47,11.15-22.32,11.28-10.04-.12-19.68-3.02-29.93-1.57-6.28.54-13.24,1.25-18.51-2.84-3.82-2.7-6.7-6.98-10.39-9.86-7.62-6.39-17.44-.56-26.66.77-11.47,2.74-23.07-3.91-34.47-1.51-16.5,3.53-25.22,20.62-37.33,31.03-4.57,3.94-9.8,8.84-14.47,12.37-6.77,5.96-14.43,2.81-20.85-2.07-5.35-3.66-10.58-7.48-17.16-7.8-6.93-.37-16.26,1.61-23.24,1.01-14.08-1.98-25.28-14.85-39.61-15.81-6.2-.72-12.71-1.61-18.97-1.05-9.18,1.33-20.23,5.43-25.79,13.3-1.98,3.04-3.31,6.84-4.53,10.37-2.82,8.6-6.56,16.38-11.03,24.11-5.87,11.27-14.27,21.66-19.36,33.45-3,6.84-3.67,15.89-7.86,22.42-5.8,8.26-17.78,13.65-26.91,7.61-12.44-8.68-19.44-8.51-34.8-4.3-10.07,2.5-19.76,6.85-30.32,6.91-10.48.05-20.74,1.59-26.71,11.46-6.66,9.76-11.27,18.87-19.45,28.03-3.52,3.91-6.86,8.86-11.39,11.46-8.61,4.29-20.8-.18-30.37.33-18.88-1.58-31.97,13.32-45.19,24.74-13.75,11.52-10.15,18.67-13.57,34.54-1.36,5.4-4.45,9.93-7.31,14.61-9.36,14.4-7.72,33.17-7.03,49.12-.03,3.9-.55,7.95-1.22,11.89-1.47,7.76-2.23,16.02-5.11,23.06-1.47,3.01-3.9,5.12-7.63,7.58-4.47,2.91-10.77,6.69-15.34,9.54-9.91,6.18-19.17,11.31-29.13,17.78-9.72,6.46-13.61,17.79-20.62,26.77-8.19,10.35-12.54,23.4-18.62,34.75-3.34,6.32-8.08,12.08-9.8,19.12-1.43,5.99-.17,12.18.51,18.19.78,6.59.53,12.65-.18,20.42-.22,6.08-2.52,13.74,2.03,18.46,6.6,4.84,16.99,7.31,24.36,10.75,1.96.88,4.12,1.83,5.71,3.21,2.81,2.27,3.38,5.83,3.79,9.27.57,5.18.85,13.01,1.46,18.47.67,5.31,2.43,9.01,8.7,6.69,7.67-2.71,15.14-6.09,22.97-7.82,7.07-1.74,13.14-2.02,19.73-4.01,5.88-1.66,10.76-4.64,16.37-6.75,6.19-2.31,12.6-3.11,19.02-3.52,11.07-1.02,21.24,1.1,32.01.39,9.47-.6,19.59-3.88,28.85-3.69,11.99,1.1,25.72,4.89,36.32,9.35,16.44,5.98,11.59,21.81,6.13,34.25-7.57,16.78-29.63,16.64-44.05,23.43-9.47,4.29-14.56,13.24-23.01,18.85-11.27,7.88-26.1,14.12-33.86,25.31-16.04,22.44-24.09,1.32-46.36,15.92-12.98,7.13-22.63,18.83-25.6,33.59-1.23,5.3-2.32,10.98-4.33,15.97-2.02,5.37-4.53,8.95-9.12,12.96-12.82,10.32-20.6,10.54-15.12,32.59,1.75,6.77,7.77,10.79,13.47,14.34,13.59,8.31,23.37,20.36,36.26,28.88,7.05,5.16,15.4,4.76,23.39,2.15,7.13-1.92,15.3-2.96,21.98-3.37,7.72-.48,19.68-1.24,29.1-1.71,7.84-.37,13.85-.91,20.31-5.79,7.94-5.09,15.68-14.52,25.93-12.98,5.44.78,10.92,2.57,16.54,2.27,6.48-.14,11.44-1.99,17.49-2.89,10.05-1.62,20.74-.66,30.87-1.95,7.61-.91,13.25-4.69,21.01-6.19,10.21-1.81,20.15,1.72,30.48-.08,10.84-1.43,20.07-2.92,30.42-4.18,8.95-1.09,17.13-2.26,25.41-5.63,6.11-2.28,12.36-5.19,18.82-5.99,8.07-.65,18.16-.68,25.36,3.81,6.64,4.68,10.76,11.66,17.66,16.41,8.84,7.04,19.83,11,30.93,12.14,17.97,2.37,39.12,3.51,45.5,8.99,6.44,6.2,9.78,16.08,14.26,23.66,2.93,5,5.99,8.52,10.23,13.03,5.25,5.98,12.08,11.56,15.53,18.77,3.78,10.28,3.73,23.83,3.76,35.17-1.89,20.21,8,24.99,16.66,41.1,2.68,4.96,4.25,10.48,3.07,16.38-.9,4.81-2.91,9.3-4.12,14.06-2.06,7.46-2.25,14.68-2.56,22.42-.67,8.96.06,18.35-2.83,26.98-2.1,5.87-6.4,10.64-10.2,15.32-4.31,5.26-7.95,10.1-13.1,17.03-4,5.57-9.1,11.2-10.42,17.92-2.46,12.61,3.99,29.65,15.88,35.47,7.56,2.51,18.29-1.98,26.86-.59,8.39.86,47.53,5.72,56.17,6,6.1.3,12.2-1.03,18.25-1.82,10.44-1.54,50.75-1,61.34-1.55,12.41-.77,24.47-2.53,36.64.57,16.78,4.55,19.14-7.81,28.16-18.36,11.21-11.86,13.14-18.5,5.03-33.05-9.79-17.77-27.96-32.48-27.77-54.16-.77-18.29-4.94-34.93-4.99-53.48-.41-12.83-.06-25.35,1.39-38.15,1.46-12.83,1.83-23.43,5.79-35.13,2.82-7.64,8.79-13.1,12.74-20.13,4.1-6.42,4.97-15.62,9.21-21.28,4.71-6.05,13.55-5.42,20.6-8.15,3.81-1.43,6.81-3.65,9.69-6.73,4.32-4.62,8.02-10.09,13.06-13.99,13.73-9.87,1.31-13.49,17.95-16.66,14.11-3.1,28.38-6.93,42.68-7.29,9.34-.25,19.04-.71,27.62,3.34,6.19,2.92,10.34,7.74,16.78,10.31,10.36,4.59,21.97.51,32.64-1.13,9.02-1.49,17.14-.05,25.86,2.06,7.86,1.51,16.38,5.32,24.23,5.01,3.46-.44,5.78-3.09,8.53-7.49,3.63-6.09,8.44-13.6,10.89-19.19,3.9-8.64,3.32-19.05,10.3-26.2,8.48-9.21,19.53-13.9,31.27-19.07,11.37-4.73,22.02-10.47,34.06-13.09,20.07-3.4,36.65,8.85,55.12,15.68,6.41,2.7,12.54,5.23,18.6,7.65,5.79,2.34,11.96,4.43,18.21,3.12,8.86-1.38,18.54-7.45,27.8-6.4,5.52,1.19,9.93,5.39,15.04,9.5,5.49,4.4,8.75,9.89,11.03,16.86,2.61,6.11,3.56,14.14,8.99,18.27,4.39,2.92,9.88,3.15,16.1,4,6.19.92,12.54-.49,17.22-4.79,4.53-3.75,9.34-8.35,11.96-13.44,4.92-9.79,4.49-23.17,7.57-33.82,2.36-8.78,7.35-17.65,15-22.9,4.22-2.66,9.13-2.01,13.76-.72,5.01,1.33,10.78,2.7,15.99,3.61,14.87,2.32,47.21,8.86,52.79.62,2.49-4.14-.17-12.56-.04-18.65,0-11.91,5.61-24.25,8.2-35.62l.08-.29Z"/>
</svg>