<?xml version="1.0" encoding="UTF-8"?>
<svg id="Layer_3" data-name="Layer 3" xmlns="http://www.w3.org/2000/svg" viewBox="0 0 1440 1440">
  <polygon points="1010.31 677.09 825.31 675.98 955.7 545.59 893.29 483.19 764.02 612.46 764.02 429.69 675.98 429.69 675.98 613.57 546.71 483.19 483.19 545.59 613.57 673.75 429.69 673.75 429.69 765.13 611.34 764.02 483.19 892.18 546.71 955.7 675.98 825.31 675.98 1010.31 764.02 1008.08 764.02 826.43 893.29 955.7 955.7 892.18 826.43 764.02 1010.31 764.02 1010.31 677.09"/>
  <path d="M186.19,489.32c30.09-70.21,71.32-130.39,123.7-181.65,52.38-51.26,113.67-91.38,183.88-121.47,70.21-30.09,145.99-45.69,228.46-45.69s158.25,15.6,228.46,45.69c70.21,30.09,130.39,70.21,181.65,121.47,51.26,51.26,91.38,111.44,121.47,181.65,30.09,70.21,45.69,145.99,45.69,228.46s-15.6,158.25-45.69,228.46c-30.09,70.21-70.21,131.5-121.47,183.88-51.26,52.38-111.44,93.61-181.65,123.7-70.21,30.09-145.99,45.69-228.46,45.69s-158.25-14.49-228.46-45.69c-70.21-30.09-131.5-71.32-183.88-123.7-52.38-52.38-93.61-113.67-123.7-183.88-30.09-70.21-45.69-145.99-45.69-228.46s14.49-158.25,45.69-228.46ZM285.38,907.22c24.52,57.95,56.84,108.1,99.18,150.45,42.35,42.35,91.38,74.67,149.33,99.18,56.84,24.52,120.36,35.66,188.34,35.66s130.39-12.26,186.11-35.66c55.72-24.52,105.87-56.84,147.1-99.18,41.23-42.35,74.67-92.5,99.18-150.45,24.52-57.95,35.66-121.47,35.66-189.45s-12.26-128.16-35.66-186.11c-24.52-57.95-56.84-108.1-99.18-150.45-42.35-42.35-90.27-74.67-145.99-99.18-55.72-24.52-118.13-35.66-188.34-35.66s-130.39,12.26-188.34,35.66c-57.95,23.4-106.98,56.84-149.33,99.18-42.35,42.35-74.67,92.5-99.18,150.45-24.52,57.95-35.66,120.36-35.66,186.11s12.26,131.5,35.66,189.45h1.11Z"/>
</svg>