<?xml version="1.0" encoding="UTF-8" standalone="no"?><!DOCTYPE svg PUBLIC "-//W3C//DTD SVG 1.1//EN" "http://www.w3.org/Graphics/SVG/1.1/DTD/svg11.dtd"><svg width="100%" height="100%" viewBox="0 0 4170 3530" version="1.1" xmlns="http://www.w3.org/2000/svg" xmlns:xlink="http://www.w3.org/1999/xlink" xml:space="preserve" xmlns:serif="http://www.serif.com/" style="fill-rule:evenodd;clip-rule:evenodd;stroke-linejoin:round;stroke-miterlimit:2;"><path d="M2084.89,1742.26c-187.997,-0 -375.993,48.61 -544.459,145.831c-330.914,190.967 -534.783,543.997 -534.783,926.061l-0.002,715.644c-97.578,0 -191.162,-38.763 -260.16,-107.761c-68.998,-68.998 -107.761,-162.579 -107.761,-260.157l0.001,-610.783c-0,-29.261 -15.611,-56.298 -40.951,-70.928c-25.34,-14.63 -56.56,-14.63 -81.9,0.001l-514.876,297.274l0,-162.095c0,-162.445 86.614,-312.566 227.249,-393.87l40.048,-23.152c229.243,-132.531 370.43,-377.237 370.43,-642.033l-0,-463.311c-0,-219.38 -117.002,-422.107 -306.956,-531.857l-23.815,-13.76c-189.954,-109.751 -306.956,-312.477 -306.956,-531.858l0,-15.505l2084.89,0l-0,1742.26Zm-723.619,-586.349c-73.36,-42.333 -163.731,-42.319 -237.077,0.039c-73.347,42.357 -118.528,120.623 -118.528,205.321l-0,0.008c-0,84.715 45.199,162.995 118.569,205.346c73.37,42.351 163.762,42.338 237.119,-0.034l205.57,-118.737c30.951,-17.878 50.014,-50.911 50.007,-86.655c-0.007,-35.743 -19.083,-68.768 -50.042,-86.634l-205.618,-118.654Zm-355.605,-687.526c-0,35.549 18.966,68.396 49.753,86.167l474.999,274.185c76.43,44.118 170.592,44.112 247.017,-0.017c76.424,-44.128 123.503,-125.675 123.503,-213.925l0,-0.009c0,-65.472 -26.009,-128.262 -72.304,-174.558c-46.296,-46.296 -109.086,-72.304 -174.558,-72.304l-548.919,-0c-54.947,-0 -99.491,44.543 -99.491,99.491l-0,0.97Zm1079.23,1273.88l0,-1742.26l2084.89,0l0,15.505c0,219.381 -117.001,422.107 -306.956,531.858l-23.815,13.76c-189.954,109.75 -306.956,312.477 -306.956,531.857l0,463.311c0,264.796 141.187,509.502 370.43,642.033l40.048,23.152c140.635,81.304 227.249,231.425 227.249,393.87l0,162.095l-514.876,-297.274c-25.34,-14.631 -56.56,-14.631 -81.9,-0.001c-25.34,14.63 -40.951,41.667 -40.951,70.928l-0,610.783c-0,97.578 -38.763,191.159 -107.761,260.157c-68.998,68.998 -162.582,107.761 -260.16,107.761l-0.001,-715.644c-0,-382.064 -203.869,-735.094 -534.783,-926.061c-168.466,-97.221 -356.462,-145.831 -544.459,-145.831Zm723.619,-586.349l-205.617,118.654c-30.959,17.866 -50.035,50.891 -50.043,86.634c-0.007,35.744 19.056,68.777 50.007,86.655l205.57,118.737c73.358,42.372 163.749,42.385 237.119,0.034c73.37,-42.351 118.569,-120.631 118.569,-205.346l0,-0.008c0,-84.698 -45.181,-162.964 -118.527,-205.321c-73.347,-42.358 -163.718,-42.372 -237.078,-0.039Zm355.605,-687.526l0,-0.97c0,-54.948 -44.543,-99.491 -99.491,-99.491l-548.919,-0c-65.471,-0 -128.262,26.008 -174.558,72.304c-46.295,46.296 -72.304,109.086 -72.304,174.558l-0,0.009c-0,88.25 47.079,169.797 123.504,213.925c76.424,44.129 170.586,44.135 247.016,0.017l474.999,-274.185c30.787,-17.771 49.753,-50.618 49.753,-86.167Z"/></svg>