<?xml version="1.0" encoding="UTF-8" standalone="no"?><!DOCTYPE svg PUBLIC "-//W3C//DTD SVG 1.1//EN" "http://www.w3.org/Graphics/SVG/1.1/DTD/svg11.dtd"><svg width="100%" height="100%" viewBox="0 0 1400 1400" version="1.1" xmlns="http://www.w3.org/2000/svg" xmlns:xlink="http://www.w3.org/1999/xlink" xml:space="preserve" xmlns:serif="http://www.serif.com/" style="fill-rule:evenodd;clip-rule:evenodd;stroke-linejoin:round;stroke-miterlimit:2;"><path d="M1062.35,210.4c0,18.538 -9.89,35.668 -25.944,44.937l-141.89,81.92c-59.002,34.065 -132.754,-8.516 -132.754,-76.645l0,-24.331c0,-27.022 21.906,-48.928 48.928,-48.928l228.614,-0c12.728,-0 23.046,10.319 23.046,23.047Zm0,402.212c0,20.513 -22.207,33.333 -39.972,23.077l-160.424,-92.621c-17.079,-9.86 -17.079,-34.512 0,-44.372l80.031,-46.206c53.495,-30.885 120.365,7.722 120.365,69.493l0,90.629Zm-424.118,-352c0,68.129 -73.752,110.71 -132.753,76.645l-141.89,-81.92c-16.054,-9.269 -25.945,-26.399 -25.945,-44.937c0,-12.728 10.319,-23.047 23.047,-23.047l228.613,-0c27.022,-0 48.928,21.906 48.928,48.928l0,24.331Zm-100.192,282.456l-160.424,92.621c-17.765,10.256 -39.972,-2.564 -39.972,-23.077l0,-90.627c0,-61.773 66.87,-100.38 120.366,-69.495l80.03,46.206c17.08,9.86 17.08,34.512 0,44.372m849.604,-479.245l-1375.29,0c-6.823,0 -12.352,5.531 -12.352,12.354l-0,111.88l55.555,32.075c98.118,56.648 158.563,161.34 158.563,274.639l-0,162.128c-0,45.288 -24.162,87.137 -63.383,109.782l-47.795,27.594c-63.7,36.777 -102.94,104.745 -102.94,178.299l-0,23.773l163.326,-94.297c22.573,-13.032 50.792,3.26 50.792,29.325l-0,404.802l0.54,-0.258c75.143,-35.868 122.988,-111.722 122.988,-194.986l0,-204.792c0,-83.373 44.481,-160.415 116.684,-202.102l94.114,-54.337c39.907,-23.039 89.79,5.76 89.79,51.84l0,235.506c0,18.767 15.215,33.98 33.982,33.98l55.567,0c18.767,0 33.981,-15.213 33.981,-33.98l0,-235.506c0,-46.08 49.883,-74.879 89.79,-51.84l94.114,54.337c72.204,41.687 116.684,118.729 116.684,202.102l0,204.779c0,83.484 48.091,159.499 123.53,195.257l0,-404.802c0,-26.065 28.218,-42.357 50.792,-29.325l163.326,94.297c0,-88.266 -47.09,-169.826 -123.53,-213.959l-27.206,-15.707c-39.222,-22.645 -63.382,-64.494 -63.382,-109.782l0,-162.129c0,-113.298 60.444,-217.99 158.563,-274.639l55.555,-32.074l0,-111.88c0,-6.823 -5.531,-12.354 -12.354,-12.354" style="fill:#fff;fill-rule:nonzero;"/></svg>