<?xml version="1.0" encoding="UTF-8" standalone="no"?><!DOCTYPE svg PUBLIC "-//W3C//DTD SVG 1.1//EN" "http://www.w3.org/Graphics/SVG/1.1/DTD/svg11.dtd"><svg width="100%" height="100%" viewBox="0 0 17375 14709" version="1.1" xmlns="http://www.w3.org/2000/svg" xmlns:xlink="http://www.w3.org/1999/xlink" xml:space="preserve" xmlns:serif="http://www.serif.com/" style="fill-rule:evenodd;clip-rule:evenodd;stroke-linejoin:round;stroke-miterlimit:2;"><path d="M8687.04,7259.42c-783.321,-0 -1566.64,202.541 -2268.58,607.629c-1378.81,795.696 -2228.26,2266.65 -2228.26,3858.59l-0.008,2981.85c-406.575,0 -796.509,-161.512 -1084,-449.004c-287.492,-287.491 -449.004,-677.412 -449.004,-1083.99l0.004,-2544.93c-0,-121.921 -65.046,-234.575 -170.629,-295.534c-105.584,-60.958 -235.667,-60.958 -341.25,0.004l-2145.32,1238.64l-0,-675.396c-0,-676.854 360.892,-1302.36 946.871,-1641.12l166.866,-96.466c955.18,-552.213 1543.46,-1571.82 1543.46,-2675.14l-0,-1930.46c-0,-914.084 -487.509,-1758.78 -1278.98,-2216.07l-99.229,-57.334c-791.475,-457.295 -1278.98,-1301.99 -1278.98,-2216.08l-0,-64.604l8687.04,0l-0.001,7259.42l0.005,-0.004Zm-3015.08,-2443.12c-305.667,-176.388 -682.213,-176.329 -987.821,0.162c-305.613,176.488 -493.867,502.596 -493.867,855.505l-0,0.033c-0,352.979 188.329,679.146 494.037,855.608c305.709,176.463 682.342,176.409 987.996,-0.141l856.542,-494.738c128.962,-74.492 208.392,-212.129 208.362,-361.063c-0.029,-148.929 -79.512,-286.533 -208.508,-360.974l-856.742,-494.392Zm-1481.69,-2864.69c-0,148.121 79.025,284.984 207.304,359.029l1979.16,1142.44c318.458,183.825 710.8,183.8 1029.24,-0.071c318.433,-183.867 514.596,-523.646 514.596,-891.354l-0,-0.038c-0,-272.8 -108.371,-534.425 -301.267,-727.325c-192.9,-192.9 -454.525,-301.266 -727.325,-301.266l-2287.16,-0c-228.946,-0 -414.546,185.596 -414.546,414.546l-0,4.041Zm4496.79,5307.83l-0,-7259.42l8687.04,-0l0,64.604c0,914.088 -487.504,1758.78 -1278.98,2216.08l-99.229,57.333c-791.475,457.292 -1278.98,1301.99 -1278.98,2216.07l0.001,1930.46c-0.001,1103.32 588.279,2122.93 1543.46,2675.14l166.866,96.467c585.98,338.767 946.871,964.271 946.871,1641.12l0,675.396l-2145.32,-1238.64c-105.584,-60.962 -235.667,-60.962 -341.25,-0.004c-105.584,60.958 -170.63,173.612 -170.63,295.533l0,2544.93c0,406.575 -161.512,796.496 -449.004,1083.99c-287.491,287.492 -677.425,449.004 -1084,449.004l-0.004,-2981.85c0,-1591.93 -849.454,-3062.89 -2228.26,-3858.59c-701.942,-405.088 -1485.26,-607.63 -2268.58,-607.63l0.005,0.005Zm3015.08,-2443.12l-856.738,494.391c-128.995,74.442 -208.479,212.046 -208.512,360.975c-0.029,148.934 79.4,286.571 208.362,361.063l856.542,494.737c305.658,176.55 682.288,176.605 987.996,0.142c305.708,-176.462 494.037,-502.629 494.037,-855.608l0,-0.034c0,-352.908 -188.254,-679.016 -493.862,-855.504c-305.613,-176.491 -682.158,-176.55 -987.825,-0.162Zm1481.69,-2864.69l0,-4.042c0,-228.95 -185.595,-414.545 -414.545,-414.545l-2287.16,-0c-272.796,-0 -534.425,108.366 -727.325,301.266c-192.896,192.9 -301.267,454.525 -301.267,727.325l0,0.038c0,367.708 196.163,707.487 514.6,891.354c318.434,183.871 710.775,183.896 1029.23,0.071l1979.16,-1142.44c128.279,-74.046 207.304,-210.908 207.304,-359.029Z" style="fill:#fff;"/></svg>