<?xml version="1.0" encoding="UTF-8" standalone="no"?><!DOCTYPE svg PUBLIC "-//W3C//DTD SVG 1.1//EN" "http://www.w3.org/Graphics/SVG/1.1/DTD/svg11.dtd"><svg width="100%" height="100%" viewBox="0 0 794 730" version="1.1" xmlns="http://www.w3.org/2000/svg" xmlns:xlink="http://www.w3.org/1999/xlink" xml:space="preserve" xmlns:serif="http://www.serif.com/" style="fill-rule:evenodd;clip-rule:evenodd;stroke-linejoin:round;stroke-miterlimit:2;"><g id="Layer1"><path d="M179.937,186.796c2.468,7.733 9.489,13.697 18.418,15.646l78.916,17.221c32.815,7.162 62.498,-19.412 53.428,-47.832l-3.239,-10.15c-3.597,-11.272 -17.013,-17.793 -29.965,-14.565l-109.58,27.312c-6.1,1.521 -9.672,7.058 -7.978,12.368Zm53.543,167.783c2.731,8.557 15.082,11.252 22.232,4.851l64.564,-57.802c6.874,-6.154 3.592,-16.438 -5.907,-18.51l-44.511,-9.714c-29.753,-6.493 -56.665,17.601 -48.442,43.369l12.064,37.806Zm156.429,-197.506c9.07,28.42 50.089,37.371 73.835,16.112l57.105,-51.124c6.461,-5.785 8.922,-14.112 6.454,-21.845c-1.695,-5.31 -8.014,-8.382 -14.115,-6.861l-109.579,27.312c-12.952,3.228 -20.536,14.984 -16.939,26.256l3.239,10.15Zm85.626,105.857l89.224,19.471c9.88,2.156 18.818,-5.845 16.087,-14.402l-12.064,-37.805c-8.224,-25.769 -45.415,-33.885 -66.945,-14.61l-32.209,28.836c-6.874,6.154 -3.593,16.437 5.907,18.51m-471.03,-98.416l659.203,-164.305c3.27,-0.816 6.657,0.831 7.565,3.677l14.894,46.671l-22.359,20.018c-39.489,35.352 -54.524,86.246 -39.442,133.509l21.583,67.632c6.029,18.892 23.182,33.463 44.995,38.223l26.583,5.801c35.428,7.732 63.285,31.397 73.077,62.08l3.164,9.917l-90.838,-19.824c-12.555,-2.739 -23.912,7.428 -20.442,18.301l53.888,168.864l-0.293,-0.043c-40.792,-5.985 -73.823,-31.912 -84.907,-66.646l-27.263,-85.429c-11.099,-34.779 -42.675,-61.603 -82.833,-70.367l-52.344,-11.423c-22.195,-4.843 -42.271,13.13 -36.137,32.352l31.351,98.242c2.498,7.829 -2.769,15.993 -11.765,18.235l-26.634,6.638c-8.996,2.242 -18.313,-2.286 -20.811,-10.115l-31.352,-98.242c-6.134,-19.222 -33.877,-25.276 -49.939,-10.898l-37.877,33.911c-29.059,26.016 -40.123,63.468 -29.025,98.247l27.261,85.424c11.114,34.826 -1.818,72.281 -33.217,96.21l-53.888,-168.864c-3.47,-10.873 -19.164,-14.298 -28.25,-6.165l-65.732,58.849c-11.75,-36.82 -0.037,-76.469 30.728,-104.012l10.949,-9.802c15.785,-14.132 21.795,-34.476 15.766,-53.368l-21.583,-67.632c-15.083,-47.263 -57.992,-83.714 -112.563,-95.623l-30.899,-6.743l-14.893,-46.671c-0.909,-2.846 1.006,-5.814 4.277,-6.629" style="fill:#fffae9;fill-rule:nonzero;"/></g></svg>