<?xml version="1.0" encoding="UTF-8" standalone="no"?><!DOCTYPE svg PUBLIC "-//W3C//DTD SVG 1.1//EN" "http://www.w3.org/Graphics/SVG/1.1/DTD/svg11.dtd"><svg width="100%" height="100%" viewBox="0 0 37500 37500" version="1.1" xmlns="http://www.w3.org/2000/svg" xmlns:xlink="http://www.w3.org/1999/xlink" xml:space="preserve" xmlns:serif="http://www.serif.com/" style="fill-rule:evenodd;clip-rule:evenodd;stroke-linejoin:round;stroke-miterlimit:2;"><rect x="0" y="0" width="37500" height="37500" style="fill:#ed532a;"/><path d="M18750,18615.3c-1118.51,0 -2237.03,289.215 -3239.34,867.64c-1968.82,1136.19 -3181.76,3236.6 -3181.76,5509.73l-0.018,4257.83c-580.555,0 -1137.34,-230.626 -1547.86,-641.139c-410.513,-410.514 -641.134,-967.294 -641.134,-1547.85l0,-3633.94c0,-174.087 -92.874,-334.953 -243.638,-421.997c-150.764,-87.037 -336.517,-87.037 -487.281,0.006l-3063.32,1768.68l-0,-964.414c-0,-966.49 515.322,-1859.65 1352.05,-2343.38l238.271,-137.752c1363.92,-788.506 2203.93,-2244.42 2203.93,-3819.86l0,-2756.54c0,-1305.24 -696.114,-2511.39 -1826.27,-3164.37l-141.697,-81.867c-1130.16,-652.974 -1826.27,-1859.13 -1826.27,-3164.36l-0,-92.255l12404.4,0l-0,10365.8Zm-4305.27,-3488.57c-436.466,-251.873 -974.142,-251.783 -1410.53,0.226c-436.388,252.009 -705.199,717.664 -705.199,1221.59l-0,0.041c-0,504.031 268.924,969.763 705.449,1221.74c436.526,251.974 974.32,251.896 1410.77,-0.202l1223.06,-706.443c184.153,-106.368 297.571,-302.896 297.524,-515.561c-0.042,-212.664 -113.537,-409.151 -297.732,-515.441l-1223.35,-705.949Zm-2115.73,-4090.54c-0,211.498 112.841,406.926 296.019,512.663l2826.07,1631.3c454.738,262.487 1014.96,262.451 1469.66,-0.095c454.701,-262.552 734.805,-747.727 734.805,-1272.78l-0,-0.053c-0,-389.535 -154.745,-763.114 -430.189,-1038.56c-275.439,-275.439 -649.023,-430.184 -1038.56,-430.184l-3265.87,0c-326.921,0 -591.942,265.021 -591.942,591.943l-0,5.771Zm6421.03,7579.07l0.003,-10365.8l12404.4,0l-0,92.256c-0,1305.23 -696.121,2511.39 -1826.28,3164.36l-141.69,81.867c-1130.16,652.974 -1826.28,1859.13 -1826.28,3164.37l0,2756.54c0,1575.44 840.013,3031.36 2203.93,3819.86l238.272,137.752c836.722,483.73 1352.05,1376.89 1352.05,2343.38l-0,964.413l-3063.33,-1768.68c-150.764,-87.043 -336.512,-87.043 -487.282,-0.006c-150.764,87.044 -243.638,247.91 -243.638,421.997l-0.006,3633.94c0,580.555 -230.62,1137.33 -641.139,1547.85c-410.514,410.514 -967.3,641.14 -1547.85,641.14l-0.012,-4257.83c-0,-2273.14 -1212.94,-4373.55 -3181.76,-5509.73c-1002.31,-578.424 -2120.83,-867.64 -3239.34,-867.64Zm6421,-7579.1l-0,-5.771c-0,-326.921 -265.021,-591.942 -591.942,-591.942l-3265.87,-0c-389.535,-0 -763.113,154.744 -1038.56,430.183c-275.445,275.445 -430.183,649.023 -430.183,1038.56l-0,0.054c-0.006,525.056 280.097,1010.23 734.799,1272.78c454.702,262.546 1014.93,262.582 1469.66,0.096l2826.08,-1631.3c183.172,-105.737 296.013,-301.165 296.013,-512.663Zm-2115.73,4090.54l-1223.35,705.949c-184.195,106.29 -297.691,302.777 -297.732,515.442c-0.042,212.664 113.37,409.192 297.524,515.56l1223.06,706.443c436.454,252.099 974.255,252.176 1410.78,0.203c436.52,-251.974 705.444,-717.706 705.444,-1221.74l-0,-0.042c-0,-503.929 -268.811,-969.584 -705.2,-1221.59c-436.383,-252.009 -974.064,-252.098 -1410.53,-0.226Z" style="fill:#050e13;"/></svg>