<?xml version="1.0" encoding="UTF-8"?>
<svg id="Layer_1" data-name="Layer 1" xmlns="http://www.w3.org/2000/svg" viewBox="0 0 1080 1080">
  <defs>
    <style>
      .cls-1 {
        fill-rule: evenodd;
      }

      .cls-2 {
        fill: #ed532a;
      }
    </style>
  </defs>
  <rect class="cls-2" width="1080" height="1080" rx="210.07" ry="210.07"/>
  <path class="cls-1" d="M539.73,536.35c-33.44,0-66.89,8.65-96.85,25.94-58.87,33.97-95.13,96.77-95.13,164.74v127.31c-17.36,0-34.01-6.9-46.28-19.17-12.27-12.27-19.17-28.92-19.17-46.28v-108.65c0-5.21-2.78-10.01-7.28-12.62-4.51-2.6-10.06-2.6-14.57,0l-91.59,52.88v-28.84c0-28.9,15.41-55.6,40.43-70.07l7.12-4.12c40.78-23.58,65.9-67.11,65.9-114.21v-82.42c0-39.03-20.81-75.09-54.6-94.61l-4.24-2.45c-33.79-19.52-54.6-55.59-54.6-94.61v-2.76h370.88v309.93h0ZM411,432.04c-13.05-7.53-29.13-7.53-42.17,0-13.05,7.53-21.09,21.46-21.09,36.52h0c0,15.07,8.04,29,21.09,36.53,13.05,7.53,29.13,7.53,42.18,0l36.57-21.12c5.51-3.18,8.9-9.06,8.9-15.42,0-6.36-3.39-12.23-8.9-15.41l-36.58-21.11h0ZM347.74,309.74c0,6.32,3.37,12.17,8.85,15.33l84.5,48.77c13.6,7.85,30.35,7.85,43.94,0,13.6-7.85,21.97-22.36,21.97-38.06h0c0-11.65-4.63-22.82-12.86-31.05-8.24-8.24-19.41-12.86-31.05-12.86h-97.65c-9.77,0-17.7,7.92-17.7,17.7v.17h0ZM539.73,536.35V226.42h370.88v2.76c0,39.03-20.81,75.09-54.6,94.61l-4.24,2.45c-33.79,19.52-54.6,55.59-54.6,94.61v82.42c0,47.1,25.12,90.64,65.9,114.21l7.12,4.12c25.02,14.46,40.43,41.17,40.43,70.07v28.84l-91.59-52.88c-4.51-2.6-10.06-2.6-14.57,0-4.51,2.6-7.28,7.41-7.28,12.62v108.65c0,17.36-6.9,34.01-19.17,46.28-12.27,12.27-28.92,19.17-46.28,19.17v-127.31c0-67.97-36.27-130.77-95.13-164.74-29.97-17.29-63.41-25.94-96.85-25.94h0ZM668.45,432.04l-36.58,21.11c-5.51,3.18-8.9,9.05-8.9,15.41,0,6.36,3.39,12.23,8.9,15.42l36.57,21.12c13.05,7.54,29.13,7.54,42.18,0,13.05-7.53,21.09-21.46,21.09-36.53h0c0-15.07-8.04-28.99-21.08-36.53-13.05-7.54-29.12-7.54-42.17,0h0ZM731.71,309.74v-.17c0-9.77-7.92-17.7-17.7-17.7h-97.65c-11.65,0-22.82,4.63-31.05,12.86-8.24,8.24-12.86,19.41-12.86,31.05h0c0,15.7,8.37,30.21,21.97,38.06,13.6,7.85,30.35,7.85,43.94,0l84.5-48.77c5.48-3.16,8.85-9,8.85-15.33Z"/>
</svg>